<?xml version="1.0" encoding="UTF-8"?>
<svg width="24px" height="24px" viewBox="0 0 24 24" version="1.1" xmlns="http://www.w3.org/2000/svg" xmlns:xlink="http://www.w3.org/1999/xlink">
    <title>Annuaire@3x</title>
    <defs>
        <filter id="filter-1">
            <feColorMatrix in="SourceGraphic" type="matrix" values="0 0 0 0 1.000000 0 0 0 0 1.000000 0 0 0 0 1.000000 0 0 0 0.870000 0"></feColorMatrix>
        </filter>
    </defs>
    <g id="Maquette" stroke="none" stroke-width="1" fill="none" fill-rule="evenodd">
        <g id="Artboard" transform="translate(-275.000000, -94.000000)">
            <g id="Annuaire" transform="translate(155.000000, 90.000000)" filter="url(#filter-1)">
                <g transform="translate(120.000000, 4.000000)">
                    <rect id="Rectangle" x="0" y="0" width="24" height="24"></rect>
                    <path d="M9,1 L19,1 C20.1045695,1 21,1.8954305 21,3 L21,19 L19,18.13 L19,3 L7,3 C7,1.8954305 7.8954305,1 9,1 L9,1 Z M15,20 L15,7 L5,7 L5,20 L10,17.82 L15,20 L15,20 Z M15,5 C16.11,5 17,5.9 17,7 L17,23 L10,20 L3,23 L3,7 C3,5.8954305 3.8954305,5 5,5 L15,5 Z" id="Shape" fill-opacity="0.87" fill="#FFFFFF" fill-rule="nonzero"></path>
                </g>
            </g>
        </g>
    </g>
</svg>