<?xml version="1.0" encoding="UTF-8"?>
<svg width="15px" height="17px" viewBox="0 0 15 17" version="1.1" xmlns="http://www.w3.org/2000/svg" xmlns:xlink="http://www.w3.org/1999/xlink">
    <title>↳ 📍icon / Add</title>
    <defs>
        <path d="M13.87,11.5062366 C14.2547584,11.5062366 14.5666667,11.8282064 14.5666667,12.2253763 L14.5666667,12.2253763 L14.5666667,14.3827957 C14.5666667,15.5743055 13.6309418,16.5402151 12.4766667,16.5402151 L12.4766667,16.5402151 L2.72333333,16.5402151 C1.56905821,16.5402151 0.633333333,15.5743055 0.633333333,14.3827957 L0.633333333,14.3827957 L0.633333333,12.2253763 C0.633333333,11.8282064 0.945241624,11.5062366 1.33,11.5062366 C1.71475838,11.5062366 2.02666667,11.8282064 2.02666667,12.2253763 L2.02666667,12.2253763 L2.02666667,14.3827957 C2.02666667,14.7799656 2.33857496,15.1019355 2.72333333,15.1019355 L2.72333333,15.1019355 L12.4766667,15.1019355 C12.861425,15.1019355 13.1733333,14.7799656 13.1733333,14.3827957 L13.1733333,14.3827957 L13.1733333,12.2253763 C13.1733333,11.8282064 13.4852416,11.5062366 13.87,11.5062366 Z M7.50546646,12.2188114 C7.49030613,12.2164959 7.4832627,12.215305 7.47623493,12.2140021 C7.45002295,12.209206 7.42443696,12.2028729 7.39944173,12.1951298 C7.38742318,12.1913633 7.37536849,12.1872646 7.36340809,12.1828173 C7.3444649,12.175778 7.3261081,12.1679856 7.30816372,12.1594285 C7.29583617,12.1535986 7.28314045,12.1470772 7.27060727,12.1401313 C7.24928732,12.1282123 7.22929515,12.1156994 7.20999302,12.1022137 C7.17399309,12.0771555 7.13950913,12.0479084 7.10738228,12.0147452 L7.18759758,12.0858963 C7.15913198,12.0642803 7.13231649,12.0404837 7.10738228,12.0147452 L4.32071561,9.13818604 C4.04865035,8.85734448 4.04865035,8.40201036 4.32071561,8.1211688 C4.59278087,7.84032725 5.0338858,7.84032725 5.30595106,8.1211688 L5.30595106,8.1211688 L6.90333333,9.77113978 L6.90333333,1.43827957 C6.90333333,1.07420713 7.16542294,0.773323649 7.50546646,0.725704684 L7.6,0.719139785 C7.98475838,0.719139785 8.29666667,1.04110963 8.29666667,1.43827957 L8.29666667,1.43827957 L8.29633333,9.77013978 L9.89404894,8.1211688 C10.1389077,7.8684114 10.5206885,7.84313566 10.7929317,8.04534158 L10.8792844,8.1211688 C11.1513496,8.40201036 11.1513496,8.85734448 10.8792844,9.13818604 L10.8792844,9.13818604 L8.09261772,12.0147452 C8.06763051,12.0405384 8.040754,12.0643815 8.01222087,12.0860341 C8.00627353,12.0906209 7.99998387,12.0952372 7.99363812,12.0997328 C7.97199589,12.1149788 7.94961216,12.1289932 7.92645134,12.1416979 C7.91541389,12.1477948 7.90440398,12.1534373 7.89328608,12.1587607 C7.87509884,12.1674722 7.85615105,12.1755482 7.83680511,12.1827651 C7.82459731,12.1872773 7.81250788,12.1913867 7.80033851,12.1951456 C7.77599101,12.2027403 7.75085305,12.2089887 7.72522671,12.21379 C7.71753799,12.215169 7.71011364,12.2164313 7.70267488,12.2175692 C7.66922668,12.2227253 7.63491326,12.2253763 7.6,12.2253763 L7.6,12.2253763 L7.50546646,12.2188114 L7.50546646,12.2188114 Z" id="path-1"></path>
    </defs>
    <g id="Maquette" stroke="none" stroke-width="1" fill="none" fill-rule="evenodd">
        <g id="messagerie---mail" transform="translate(-1044.000000, -466.000000)">
            <g id="Group-2" transform="translate(320.000000, 136.000000)">
                <g id="Group-4" transform="translate(20.000000, 72.000000)">
                    <g transform="translate(20.000000, 20.000000)">
                        <g id="Group-5" transform="translate(0.000000, 73.000000)">
                            <g id="Outlined-Button-+-Icon-/-Enabled" transform="translate(672.000000, 157.000000)">
                                <g id="Group" transform="translate(10.640000, 7.308387)">
                                    <g id="download" transform="translate(1.520000, 0.784516)">
                                        <mask id="mask-2" fill="white">
                                            <use xlink:href="#path-1"></use>
                                        </mask>
                                        <use id="Combined-Shape" fill-opacity="0.87" fill="#FFFFFF" fill-rule="nonzero" xlink:href="#path-1"></use>
                                    </g>
                                </g>
                            </g>
                        </g>
                    </g>
                </g>
            </g>
        </g>
    </g>
</svg>