<?xml version="1.0" encoding="UTF-8"?>
<svg width="8px" height="4px" viewBox="0 0 8 4" version="1.1" xmlns="http://www.w3.org/2000/svg" xmlns:xlink="http://www.w3.org/1999/xlink">
    <title>Path</title>
    <g id="Maquette" stroke="none" stroke-width="1" fill="none" fill-rule="evenodd">
        <g id="Messagerie-action" transform="translate(-1292.000000, -217.000000)" fill="#000000">
            <g id="Group-7" transform="translate(340.000000, 195.000000)">
                <g id="Group-6" transform="translate(846.000000, 16.000000)">
                    <path d="M111.944258,7.84313724 L108.202323,4.03352101 C108.16271,3.99332955 108.111355,3.98913898 108.069032,4.0217112 C108.026581,4.05466438 108,4.11942785 108,4.19028671 L108,11.8095192 C108,11.8803781 108.026581,11.945332 108.069032,11.9782852 C108.087871,11.9927617 108.108516,12 108.129032,12 C108.15471,12 108.180258,11.9885712 108.202323,11.9662849 L111.944258,8.15666866 C111.979226,8.12104875 112,8.06257114 112,7.99990295 C112,7.93723476 111.979097,7.87875715 111.944258,7.84313724 Z" id="Path" transform="translate(110.000000, 8.000000) rotate(-270.000000) translate(-110.000000, -8.000000) "></path>
                </g>
            </g>
        </g>
    </g>
</svg>