<?xml version="1.0" encoding="UTF-8"?>
<svg width="24px" height="24px" viewBox="0 0 24 24" version="1.1" xmlns="http://www.w3.org/2000/svg" xmlns:xlink="http://www.w3.org/1999/xlink">
    <title>Group 4</title>
    <defs>
        <path d="M15,11.6666666 L15,7.5 C15,4.73857621 12.7614237,2.5 10,2.5 C7.23857628,2.5 5.00000004,4.73857621 5,7.5 L5,11.6666666 C5,12.2738118 4.83767619,12.8430443 4.55405935,13.3333332 L15.4459407,13.3333332 C15.1623238,12.8430443 15,12.2738118 15,11.6666666 Z M18.3333333,14.9999999 L1.66666667,14.9999999 C0.555555556,14.9999999 0.555555556,13.3333333 1.66666667,13.3333333 C2.58714125,13.3333333 3.33333333,12.5871412 3.33333333,11.6666666 L3.33333333,7.4999999 C3.33333333,3.81810161 6.31810171,0.833333333 10,0.833333333 C13.6818983,0.833333333 16.6666666,3.81810161 16.6666667,7.49999991 L16.6666667,11.6666666 C16.6666667,12.5871412 17.4128588,13.3333333 18.3333333,13.3333333 C19.4444444,13.3333333 19.4444444,14.9999999 18.3333333,14.9999999 Z M12.1625,17.9181431 C11.7152528,18.6891486 10.8913358,19.1637135 10,19.1637135 C9.10866424,19.1637135 8.2847472,18.6891486 7.8375,17.9181431 C7.51523264,17.3625893 7.9160746,16.6666666 8.55833333,16.6666666 L11.4416667,16.6666666 C12.0839254,16.6666666 12.4847674,17.3625893 12.1625,17.9181431 Z" id="path-1"></path>
    </defs>
    <g id="Maquette" stroke="none" stroke-width="1" fill="none" fill-rule="evenodd">
        <g id="Tableau-de-bord---eForm" transform="translate(-1390.000000, -33.000000)">
            <g id="Group-4" transform="translate(1390.000000, 33.000000)">
                <rect id="Se-déconnecter" x="0" y="0" width="24" height="24"></rect>
                <g id="bell" transform="translate(2.000000, 2.000000)">
                    <mask id="mask-2" fill="white">
                        <use xlink:href="#path-1"></use>
                    </mask>
                    <use id="Shape" fill="#000000" fill-rule="nonzero" xlink:href="#path-1"></use>
                    <g id="Group" mask="url(#mask-2)" fill="#000000">
                        <g id="COLOR/-black">
                            <rect id="Rectangle" x="0" y="0" width="20" height="20"></rect>
                        </g>
                    </g>
                </g>
            </g>
        </g>
    </g>
</svg>