<?xml version="1.0" encoding="UTF-8"?>
<svg width="24px" height="24px" viewBox="0 0 24 24" version="1.1" xmlns="http://www.w3.org/2000/svg" xmlns:xlink="http://www.w3.org/1999/xlink">
    <!-- Generator: sketchtool 63.1 (101010) - https://sketch.com -->
    <title>569E2423-6654-4846-9877-28F419FD3A96</title>
    <desc>Created with sketchtool.</desc>
    <defs>
        <rect id="path-1" x="0" y="0" width="730" height="300" rx="5"></rect>
        <filter x="-0.7%" y="-1.3%" width="101.4%" height="103.3%" filterUnits="objectBoundingBox" id="filter-2">
            <feOffset dx="0" dy="1" in="SourceAlpha" result="shadowOffsetOuter1"></feOffset>
            <feGaussianBlur stdDeviation="1.5" in="shadowOffsetOuter1" result="shadowBlurOuter1"></feGaussianBlur>
            <feColorMatrix values="0 0 0 0 0   0 0 0 0 0   0 0 0 0 0  0 0 0 0.16 0" type="matrix" in="shadowBlurOuter1" result="shadowMatrixOuter1"></feColorMatrix>
            <feMorphology radius="0.5" operator="erode" in="SourceAlpha" result="shadowSpreadOuter2"></feMorphology>
            <feOffset dx="0" dy="2" in="shadowSpreadOuter2" result="shadowOffsetOuter2"></feOffset>
            <feGaussianBlur stdDeviation="0.5" in="shadowOffsetOuter2" result="shadowBlurOuter2"></feGaussianBlur>
            <feColorMatrix values="0 0 0 0 0   0 0 0 0 0   0 0 0 0 0  0 0 0 0.1 0" type="matrix" in="shadowBlurOuter2" result="shadowMatrixOuter2"></feColorMatrix>
            <feOffset dx="0" dy="1" in="SourceAlpha" result="shadowOffsetOuter3"></feOffset>
            <feGaussianBlur stdDeviation="0.5" in="shadowOffsetOuter3" result="shadowBlurOuter3"></feGaussianBlur>
            <feColorMatrix values="0 0 0 0 0   0 0 0 0 0   0 0 0 0 0  0 0 0 0.12 0" type="matrix" in="shadowBlurOuter3" result="shadowMatrixOuter3"></feColorMatrix>
            <feMerge>
                <feMergeNode in="shadowMatrixOuter1"></feMergeNode>
                <feMergeNode in="shadowMatrixOuter2"></feMergeNode>
                <feMergeNode in="shadowMatrixOuter3"></feMergeNode>
            </feMerge>
        </filter>
        <path d="M9.80779568,8.70262392 C9.66225594,8.99747141 9.38107073,9.20193068 9.05571654,9.24948607 L4.1495,9.9666031 L7.69882113,13.4236419 C7.93469487,13.6533829 8.0423575,13.9845141 7.98669695,14.3090433 L7.14926913,19.1916734 L11.5356371,16.8849265 C11.8270199,16.7316912 12.1751567,16.7316912 12.4665396,16.8849265 L16.8529075,19.1916734 L16.0154797,14.3090433 C15.9598192,13.9845141 16.0674818,13.6533829 16.3033555,13.4236419 L19.8526767,9.9666031 L14.9464601,9.24948607 C14.6211059,9.20193068 14.3399207,8.99747141 14.194381,8.70262392 L12.0010883,4.25925434 L9.80779568,8.70262392 Z M8.24682697,7.3464661 L11.104381,1.55737608 C11.4712164,0.814207972 12.5309603,0.814207972 12.8977957,1.55737608 L15.7553497,7.3464661 L22.1457165,8.28051393 C22.9656312,8.40035674 23.2924147,9.40819801 22.6988211,9.98635811 L18.0756101,14.4893656 L19.166697,20.8509567 C19.3068155,21.6679189 18.4492666,22.2908819 17.7156371,21.9050735 L12.0010883,18.8998497 L6.28653961,21.9050735 C5.55291004,22.2908819 4.69536119,21.6679189 4.83547972,20.8509567 L5.92656655,14.4893656 L1.30335554,9.98635811 C0.709762006,9.40819801 1.03654545,8.40035674 1.85646012,8.28051393 L8.24682697,7.3464661 Z" id="path-3"></path>
    </defs>
    <g id="Maquette" stroke="none" stroke-width="1" fill="none" fill-rule="evenodd">
        <g id="Tableau-de-bord---eForm" transform="translate(-340.000000, -580.000000)">
            <rect fill="#ECECEC" x="0" y="0" width="1440" height="880"></rect>
            <g id="Group-7-Copy" transform="translate(320.000000, 560.000000)">
                <g id="Rectangle-Copy-2">
                    <use fill="black" fill-opacity="1" filter="url(#filter-2)" xlink:href="#path-1"></use>
                    <use fill="#FFFFFF" fill-rule="evenodd" xlink:href="#path-1"></use>
                </g>
                <g id="Icon-/-Catalogue" transform="translate(20.000000, 20.000000)">
                    <rect id="Background" x="0" y="0" width="24" height="24"></rect>
                    <mask id="mask-4" fill="white">
                        <use xlink:href="#path-3"></use>
                    </mask>
                    <use id="Shape" fill-opacity="0.87" fill="#C45A20" fill-rule="nonzero" xlink:href="#path-3"></use>
                </g>
            </g>
        </g>
    </g>
</svg>