<?xml version="1.0" encoding="UTF-8"?>
<svg width="20px" height="18px" viewBox="0 0 20 18" version="1.1" xmlns="http://www.w3.org/2000/svg" xmlns:xlink="http://www.w3.org/1999/xlink">
    <title>Icon / Home</title>
    <g id="Maquette" stroke="none" stroke-width="1" fill="none" fill-rule="evenodd">
        <g id="Tableau-de-bord---eForm" transform="translate(-32.000000, -125.000000)">
            <g id="Navigation" transform="translate(0.000000, 90.000000)">
                <g id="Elements-menus" transform="translate(20.000000, 20.000000)">
                    <g id="Icon-/-Home" transform="translate(10.000000, 12.000000)">
                        <rect id="Rectangle" x="0" y="0" width="24" height="24"></rect>
                        <path d="M12,6.19 L17,10.69 L17,18.5 L15,18.5 L15,12.5 L9,12.5 L9,18.5 L7,18.5 L7,10.69 L12,6.19 L12,6.19 Z M12,3.5 L2,12.5 L5,12.5 L5,20.5 L11,20.5 L11,14.5 L13,14.5 L13,20.5 L19,20.5 L19,12.5 L22,12.5 L12,3.5 Z" id="Shape" fill-opacity="0.87" fill="#FFFFFF" fill-rule="nonzero"></path>
                    </g>
                </g>
            </g>
        </g>
    </g>
</svg>