<?xml version="1.0" encoding="UTF-8"?>
<svg width="24px" height="24px" viewBox="0 0 24 24" version="1.1" xmlns="http://www.w3.org/2000/svg" xmlns:xlink="http://www.w3.org/1999/xlink">
    <title>Icon / School</title>
    <g id="Maquette" stroke="none" stroke-width="1" fill="none" fill-rule="evenodd">
        <g id="Mes-cours" transform="translate(-30.000000, -170.000000)">
            <g id="Navigation" transform="translate(0.000000, 90.000000)">
                <g id="Elements-menus" transform="translate(20.000000, 20.000000)">
                    <g id="Group-Copy-6" transform="translate(0.000000, 48.000000)">
                        <g id="School" transform="translate(10.000000, 12.000000)">
                            <rect id="Rectangle" x="0" y="0" width="24" height="24"></rect>
                            <path d="M12,3 L1,9 L5,11.18 L5,17.18 L12,21 L19,17.18 L19,11.18 L21,10.09 L21,17 L23,17 L23,9 L12,3 Z M18.82,9 L12,12.72 L5.18,9 L12,5.28 L18.82,9 Z M17,15.99 L12,18.72 L7,15.99 L7,12.27 L12,15 L17,12.27 L17,15.99 Z" id="Shape" fill-opacity="0.87" fill="#000000" fill-rule="nonzero"></path>
                        </g>
                    </g>
                </g>
            </g>
        </g>
    </g>
</svg>