<?xml version="1.0" encoding="UTF-8"?>
<svg width="24px" height="24px" viewBox="0 0 24 24" version="1.1" xmlns="http://www.w3.org/2000/svg" xmlns:xlink="http://www.w3.org/1999/xlink">
    <title>Espace perso@3x</title>
    <defs>
        <filter id="filter-1">
            <feColorMatrix in="SourceGraphic" type="matrix" values="0 0 0 0 0.149020 0 0 0 0 0.149020 0 0 0 0 0.149020 0 0 0 0.870000 0"></feColorMatrix>
        </filter>
    </defs>
    <g id="Maquette" stroke="none" stroke-width="1" fill="none" fill-rule="evenodd">
        <g id="Artboard" transform="translate(-355.000000, -598.000000)">
            <g id="Espace-perso" transform="translate(155.000000, 594.000000)" filter="url(#filter-1)">
                <g transform="translate(200.000000, 4.000000)">
                    <rect id="Rectangle" x="0" y="0" width="24" height="24"></rect>
                    <path d="M16.5,15.5 C18.22,15.5 20.25,16.3 20.5,16.78 L20.5,17.5 L12.5,17.5 L12.5,16.78 C12.75,16.3 14.78,15.5 16.5,15.5 L16.5,15.5 Z M16.5,14 C14.67,14 11,14.92 11,16.75 L11,19 L22,19 L22,16.75 C22,14.92 18.33,14 16.5,14 L16.5,14 Z M9,13 C6.67,13 2,14.17 2,16.5 L2,19 L9,19 L9,17.5 L3.5,17.5 L3.5,16.5 C3.5,15.87 6.29,14.34 9.82,14.5 C10.2498837,13.9859113 10.776508,13.5612144 11.37,13.25 C10.5899736,13.0900258 9.79623689,13.0062983 9,13 L9,13 Z M9,6.5 C9.82842712,6.5 10.5,7.17157288 10.5,8 C10.5,8.82842712 9.82842712,9.5 9,9.5 C8.17157288,9.5 7.5,8.82842712 7.5,8 C7.5,7.17157288 8.17157288,6.5 9,6.5 L9,6.5 Z M9,5 C7.34314575,5 6,6.34314575 6,8 C6,9.65685425 7.34314575,11 9,11 C10.6568542,11 12,9.65685425 12,8 C12,6.34314575 10.6568542,5 9,5 L9,5 Z M16.5,8.5 C17.0522847,8.5 17.5,8.94771525 17.5,9.5 C17.5,10.0522847 17.0522847,10.5 16.5,10.5 C15.9477153,10.5 15.5,10.0522847 15.5,9.5 C15.5,8.94771525 15.9477153,8.5 16.5,8.5 L16.5,8.5 Z M16.5,7 C15.1192881,7 14,8.11928813 14,9.5 C14,10.8807119 15.1192881,12 16.5,12 C17.8807119,12 19,10.8807119 19,9.5 C19,8.11928813 17.8807119,7 16.5,7 L16.5,7 Z" id="Shape"  fill="#FFFFFF" fill-rule="nonzero"></path>
                </g>
            </g>
        </g>
    </g>
</svg>