<?xml version="1.0" encoding="UTF-8"?>
<svg width="24px" height="24px" viewBox="0 0 24 24" version="1.1" xmlns="http://www.w3.org/2000/svg" xmlns:xlink="http://www.w3.org/1999/xlink">
    <title>LogOut@3x</title>
    <defs>
        <filter id="filter-1">
            <feColorMatrix in="SourceGraphic" type="matrix" values="0 0 0 0 0.149020 0 0 0 0 0.149020 0 0 0 0 0.149020 0 0 0 0.870000 0"></feColorMatrix>
        </filter>
    </defs>
    <g id="Maquette" stroke="none" stroke-width="1" fill="none" fill-rule="evenodd">
        <g id="Artboard" transform="translate(-435.000000, -598.000000)">
            <g id="LogOut" transform="translate(155.000000, 594.000000)" filter="url(#filter-1)">
                <g transform="translate(280.000000, 4.000000)">
                    <rect id="Se-déconnecter" x="0" y="0" width="24" height="24"></rect>
                    <path d="M13,3 L11,3 L11,13 L13,13 L13,3 Z M17.83,5.17 L16.41,6.59 C17.99,7.86 19,9.81 19,12 C19,15.87 15.87,19 12,19 C8.13,19 5,15.87 5,12 C5,9.81 6.01,7.86 7.58,6.58 L6.17,5.17 C4.23,6.82 3,9.26 3,12 C3,16.97 7.03,21 12,21 C16.97,21 21,16.97 21,12 C21,9.26 19.77,6.82 17.83,5.17 Z" id="Shape" fill="#383838"></path>
                </g>
            </g>
        </g>
    </g>
</svg>