<?xml version="1.0" encoding="UTF-8"?>
<svg width="24px" height="24px" viewBox="0 0 24 24" version="1.1" xmlns="http://www.w3.org/2000/svg" xmlns:xlink="http://www.w3.org/1999/xlink">
    <title>Voir@3x</title>
    <defs>
        <filter id="filter-1">
            <feColorMatrix in="SourceGraphic" type="matrix" values="0 0 0 0 0.149020 0 0 0 0 0.149020 0 0 0 0 0.149020 0 0 0 0.870000 0"></feColorMatrix>
        </filter>
        <path d="M12,4.5 C14.816502,4.5 17.2822436,5.86040911 19.378781,8.09671573 C20.0990614,8.86501482 20.7245829,9.68537091 21.2547203,10.5062288 C21.5750273,11.002188 21.7948826,11.3930418 21.9120227,11.627322 C22.0293258,11.8619282 22.0293258,12.1380718 21.9120227,12.372678 C21.7948826,12.6069582 21.5750273,12.997812 21.2547203,13.4937712 C20.7245829,14.3146291 20.0990614,15.1349852 19.378781,15.9032843 C17.2822436,18.1395909 14.816502,19.5 12,19.5 C9.18349796,19.5 6.71775645,18.1395909 4.621219,15.9032843 C3.90093859,15.1349852 3.27541708,14.3146291 2.74527969,13.4937712 C2.42497272,12.997812 2.20511742,12.6069582 2.08797734,12.372678 C1.97067422,12.1380718 1.97067422,11.8619282 2.08797734,11.627322 C2.20511742,11.3930418 2.42497272,11.002188 2.74527969,10.5062288 C3.27541708,9.68537091 3.90093859,8.86501482 4.621219,8.09671573 C6.71775645,5.86040911 9.18349796,4.5 12,4.5 Z M12,6.16666667 C9.71233537,6.16666667 7.64682689,7.30625755 5.83711434,9.23661761 C5.19020724,9.92665184 4.6243225,10.6687958 4.14534531,11.4104379 C4.0093977,11.6209374 3.88882385,11.8186414 3.78392681,12 C3.88882385,12.1813586 4.0093977,12.3790626 4.14534531,12.5895621 C4.6243225,13.3312042 5.19020724,14.0733482 5.83711434,14.7633824 C7.64682689,16.6937424 9.71233537,17.8333333 12,17.8333333 C14.2876646,17.8333333 16.3531731,16.6937424 18.1628857,14.7633824 C18.8097928,14.0733482 19.3756775,13.3312042 19.8546547,12.5895621 C19.9906023,12.3790626 20.1111762,12.1813586 20.2160732,12 C20.1111762,11.8186414 19.9906023,11.6209374 19.8546547,11.4104379 C19.3756775,10.6687958 18.8097928,9.92665184 18.1628857,9.23661761 C16.3531731,7.30625755 14.2876646,6.16666667 12,6.16666667 Z M12,8.66666667 C13.8409492,8.66666667 15.3333333,10.1590508 15.3333333,12 C15.3333333,13.8409492 13.8409492,15.3333333 12,15.3333333 C10.1590508,15.3333333 8.66666667,13.8409492 8.66666667,12 C8.66666667,10.1590508 10.1590508,8.66666667 12,8.66666667 Z M12,10.3333333 C11.0795254,10.3333333 10.3333333,11.0795254 10.3333333,12 C10.3333333,12.9204746 11.0795254,13.6666667 12,13.6666667 C12.9204746,13.6666667 13.6666667,12.9204746 13.6666667,12 C13.6666667,11.0795254 12.9204746,10.3333333 12,10.3333333 Z" id="path-2" fill="#383838"></path>
    </defs>
    <g id="Maquette" stroke="none" stroke-width="1" fill="none" fill-rule="evenodd">
        <g id="Artboard" transform="translate(-835.000000, -598.000000)">
            <g id="Voir" transform="translate(155.000000, 594.000000)" filter="url(#filter-1)">
                <g transform="translate(680.000000, 4.000000)">
                    <rect id="Rectangle" x="0" y="0" width="24" height="24"></rect>
                    <mask id="mask-3" fill="#383838">
                        <use xlink:href="#path-2"></use>
                    </mask>
                    <use id="Combined-Shape" fill="#383838" fill-rule="nonzero" xlink:href="#path-2"></use>
                </g>
            </g>
        </g>
    </g>
</svg>