<?xml version="1.0" encoding="UTF-8"?>
<svg width="20px" height="16px" viewBox="0 0 20 16" version="1.1" xmlns="http://www.w3.org/2000/svg" xmlns:xlink="http://www.w3.org/1999/xlink">
    <title>Icon / Messagerie</title>
    <g id="Maquette" stroke="none" stroke-width="1" fill="none" fill-rule="evenodd">
        <g id="Tableau-de-bord---eForm" transform="translate(-32.000000, -270.000000)">
            <g id="Navigation" transform="translate(0.000000, 90.000000)">
                <g id="Elements-menus" transform="translate(20.000000, 20.000000)">
                    <g id="Group-Copy-4" transform="translate(0.000000, 144.000000)">
                        <g id="Icon-/-Messagerie" transform="translate(10.000000, 12.000000)">
                            <rect id="Rectangle" x="0" y="0" width="24" height="24"></rect>
                            <path d="M20,4 L4,4 C2.9,4 2.01,4.9 2.01,6 L2,18 C2,19.1 2.9,20 4,20 L20,20 C21.1,20 22,19.1 22,18 L22,6 C22,4.9 21.1,4 20,4 Z M20,18 L4,18 L4,8 L12,13 L20,8 L20,18 Z M12,11 L4,6 L20,6 L12,11 Z" id="Shape" fill-opacity="0.87" fill="#C45A20" fill-rule="nonzero"></path>
                        </g>
                    </g>
                </g>
            </g>
        </g>
    </g>
</svg>