<?xml version="1.0" encoding="UTF-8"?>
<svg width="32px" height="32px" viewBox="0 0 32 32" version="1.1" xmlns="http://www.w3.org/2000/svg" xmlns:xlink="http://www.w3.org/1999/xlink">
    <title>Folder@3x</title>
    <g id="Maquette" stroke="none" stroke-width="1" fill="none" fill-rule="evenodd">
        <g id="Artboard" transform="translate(-1195.000000, -258.000000)">
            <g id="Folder" transform="translate(155.000000, 258.000000)">
                <g transform="translate(1040.000000, 0.000000)">
                    <rect id="Rectangle" x="0" y="7.10542736e-14" width="32" height="32"></rect>
                    <path d="M11.5810203,6 L6,6 C5.30964406,6 4.75,6.55964406 4.75,7.25 L4.75,24.75 C4.75,25.4403559 5.30964406,26 6,26 L26,26 C26.6903559,26 27.25,25.4403559 27.25,24.75 L27.25,11 C27.25,10.3096441 26.6903559,9.75 26,9.75 L14.75,9.75 C14.3320585,9.75 13.9417694,9.54112358 13.7099371,9.19337525 L11.5810203,6 Z M15.4189797,7.25 L26,7.25 C28.0710678,7.25 29.75,8.92893219 29.75,11 L29.75,24.75 C29.75,26.8210678 28.0710678,28.5 26,28.5 L6,28.5 C3.92893219,28.5 2.25,26.8210678 2.25,24.75 L2.25,7.25 C2.25,5.17893219 3.92893219,3.5 6,3.5 L12.25,3.5 C12.6679415,3.5 13.0582306,3.70887642 13.2900629,4.05662475 L15.4189797,7.25 Z" id="Shape" fill="#C45A20" fill-rule="nonzero"></path>
                </g>
            </g>
        </g>
    </g>
</svg>