<?xml version="1.0" encoding="UTF-8"?>
<svg width="24px" height="24px" viewBox="0 0 24 24" version="1.1" xmlns="http://www.w3.org/2000/svg" xmlns:xlink="http://www.w3.org/1999/xlink">
    <title>Catalogue@3x</title>
    <defs>
        <filter id="filter-1">
            <feColorMatrix in="SourceGraphic" type="matrix" values="0 0 0 0 0.368627 0 0 0 0 0.494118 0 0 0 0 0.309804 0 0 0 0.870000 0"></feColorMatrix>
        </filter>
    </defs>
    <g id="Maquette" stroke="none" stroke-width="1" fill="none" fill-rule="evenodd">
        <g id="Artboard" transform="translate(-195.000000, -262.000000)">
            <g id="Catalogue" transform="translate(155.000000, 258.000000)" filter="url(#filter-1)">
                <g transform="translate(40.000000, 4.000000)">
                    <rect id="Rectangle" x="0" y="0" width="24" height="24"></rect>
                    <path d="M12,9 C14.21,9 16,7.21 16,5 C16,2.79 14.21,1 12,1 C9.79,1 8,2.79 8,5 C8,7.21 9.79,9 12,9 Z M12,3 C13.1,3 14,3.9 14,5 C14,6.1 13.1,7 12,7 C10.9,7 10,6.1 10,5 C10,3.9 10.9,3 12,3 Z M12,11.55 C9.64,9.35 6.48,8 3,8 L3,19 C6.48,19 9.64,20.35 12,22.55 C14.36,20.36 17.52,19 21,19 L21,8 C17.52,8 14.36,9.35 12,11.55 Z M19,17.13 C16.47,17.47 14.07,18.43 12,19.95 C9.94,18.43 7.53,17.46 5,17.12 L5,10.17 C7.1,10.55 9.05,11.52 10.64,13 L12,14.28 L13.36,13.01 C14.95,11.53 16.9,10.56 19,10.18 L19,17.13 L19,17.13 Z" id="Shape" fill-opacity="0.87" fill="#FFFFFF" fill-rule="nonzero"></path>
                </g>
            </g>
        </g>
    </g>
</svg>