<?xml version="1.0" encoding="UTF-8"?>
<svg width="21px" height="5px" viewBox="0 0 21 5" version="1.1" xmlns="http://www.w3.org/2000/svg" xmlns:xlink="http://www.w3.org/1999/xlink">
    <title>Icon / Catalogue Copy 2</title>
    <defs>
        <path d="M12.5,10 C13.8807119,10 15,11.1192881 15,12.5 C15,13.8807119 13.8807119,15 12.5,15 C11.1192881,15 10,13.8807119 10,12.5 C10,11.1192881 11.1192881,10 12.5,10 Z M20.5,10 C21.8807119,10 23,11.1192881 23,12.5 C23,13.8807119 21.8807119,15 20.5,15 C19.1192881,15 18,13.8807119 18,12.5 C18,11.1192881 19.1192881,10 20.5,10 Z M4.5,10 C5.88071187,10 7,11.1192881 7,12.5 C7,13.8807119 5.88071187,15 4.5,15 C3.11928813,15 2,13.8807119 2,12.5 C2,11.1192881 3.11928813,10 4.5,10 Z" id="path-1"></path>
    </defs>
    <g id="Maquette" stroke="none" stroke-width="1" fill="none" fill-rule="evenodd">
        <g id="Tableau-de-bord---eForm" transform="translate(-1388.000000, -140.000000)">
            <g id="Group-6" transform="translate(1070.000000, 110.000000)">
                <g id="Icon-/-Catalogue-Copy-2" transform="translate(316.000000, 20.000000)">
                    <rect id="Background" x="0" y="0" width="24" height="24"></rect>
                    <mask id="mask-2" fill="white">
                        <use xlink:href="#path-1"></use>
                    </mask>
                    <use id="Combined-Shape" fill="#262626" fill-rule="nonzero" opacity="0.54" xlink:href="#path-1"></use>
                </g>
            </g>
        </g>
    </g>
</svg>