<?xml version="1.0" encoding="UTF-8"?>
<svg width="20px" height="20px" viewBox="0 0 20 20" version="1.1" xmlns="http://www.w3.org/2000/svg" xmlns:xlink="http://www.w3.org/1999/xlink">
    <title>Icon / Catalogue Copy 4</title>
    <defs>
        <path d="M8.43231245,6.66344544 L8.687321,6.67518451 C10.1343436,6.77881742 11.4650154,7.50582493 12.3339709,8.66751785 C12.6096432,9.03605978 12.5343574,9.55829859 12.1658155,9.83397087 C11.7972736,10.1096432 11.2750347,10.0343574 10.9993625,9.66581549 C10.4200588,8.89135354 9.53294426,8.40668187 8.56826255,8.33759326 C7.60358084,8.26850465 6.65645193,8.6218114 5.97258898,9.30592232 L5.97258898,9.30592232 L3.48274017,11.7955932 C2.21949947,13.1035228 2.23756559,15.1825424 3.52334492,16.4683217 C4.80912425,17.7541011 6.88814388,17.7721672 8.18574435,16.5190777 L8.18574435,16.5190777 L9.61074435,15.0940777 C9.93618126,14.7686408 10.4638187,14.7686408 10.7892557,15.0940777 C11.1146926,15.4195146 11.1146926,15.9471521 10.7892557,16.272589 L10.7892557,16.272589 L9.3539265,17.7077402 C7.39203206,19.6026012 4.27350261,19.575502 2.34483362,17.646833 C0.416164626,15.7181641 0.389065448,12.5996346 2.29407768,10.627411 L2.29407768,10.627411 L4.79397087,8.12751785 C5.81960507,7.10151172 7.24029844,6.57155159 8.687321,6.67518451 Z M10.6460735,2.29225983 C12.6079679,0.397398781 15.7264974,0.424497959 17.6551664,2.35316695 C19.5838354,4.28183594 19.6109346,7.40036539 17.7059223,9.37258898 L17.7059223,9.37258898 L15.2060291,11.8724822 C14.1803949,12.8984883 12.7597016,13.4284484 11.312679,13.3248155 C9.86565643,13.2211826 8.53498462,12.4941751 7.66602913,11.3324822 C7.39035685,10.9639402 7.46564258,10.4417014 7.83418451,10.1660291 C8.20272645,9.89035685 8.72496526,9.96564258 9.00063754,10.3341845 C9.5799412,11.1086465 10.4670557,11.5933181 11.4317374,11.6624067 C12.3964192,11.7314954 13.3435481,11.3781886 14.027411,10.6940777 L14.027411,10.6940777 L16.5172598,8.20440684 C17.7805005,6.89647721 17.7624344,4.81745758 16.4766551,3.53167825 C15.1908758,2.24589893 13.1118561,2.22783281 11.8125352,3.48263775 L11.8125352,3.48263775 L10.3792019,4.90763775 C10.0528176,5.23212449 9.52518232,5.23058619 9.20069558,4.90420187 C8.87620885,4.57781756 8.87774714,4.05018232 9.20413146,3.72569558 L9.20413146,3.72569558 Z" id="path-1"></path>
    </defs>
    <g id="Maquette" stroke="none" stroke-width="1" fill="none" fill-rule="evenodd">
        <g id="Messagerie-action" transform="translate(-1214.000000, -329.000000)">
            <g id="Group-2" transform="translate(1197.000000, 278.000000)">
                <g id="Group" transform="translate(15.000000, 49.000000)">
                    <g id="link" transform="translate(2.000000, 2.000000)">
                        <mask id="mask-2" fill="white">
                            <use xlink:href="#path-1"></use>
                        </mask>
                        <use id="Combined-Shape" fill="#C45A20" fill-rule="nonzero" xlink:href="#path-1"></use>
                    </g>
                </g>
            </g>
        </g>
    </g>
</svg>