<?xml version="1.0" encoding="UTF-8"?>
<svg width="25px" height="26px" viewBox="0 0 25 26" version="1.1" xmlns="http://www.w3.org/2000/svg" xmlns:xlink="http://www.w3.org/1999/xlink">
    <title>Icon / LogOut</title>
    <g id="Maquette" stroke="none" stroke-width="1" fill="none" fill-rule="evenodd">
        <g id="Tableau-de-bord---eForm" transform="translate(-1332.000000, -32.000000)">
            <g id="Group" transform="translate(1184.000000, 21.000000)">
                <g id="Icon-/-LogOut" transform="translate(148.000000, 11.500000)">
                    <rect id="Se-déconnecter" x="0.5" y="0.5" width="24" height="24"></rect>
                    <path d="M13.5,3.5 L11.5,3.5 L11.5,13.5 L13.5,13.5 L13.5,3.5 Z M18.33,5.67 L16.91,7.09 C18.49,8.36 19.5,10.31 19.5,12.5 C19.5,16.37 16.37,19.5 12.5,19.5 C8.63,19.5 5.5,16.37 5.5,12.5 C5.5,10.31 6.51,8.36 8.08,7.08 L6.67,5.67 C4.73,7.32 3.5,9.76 3.5,12.5 C3.5,17.47 7.53,21.5 12.5,21.5 C17.47,21.5 21.5,17.47 21.5,12.5 C21.5,9.76 20.27,7.32 18.33,5.67 Z" id="Shape" fill="#383838"></path>
                </g>
            </g>
        </g>
    </g>
</svg>