<?xml version="1.0" encoding="UTF-8"?>
<svg width="20px" height="20px" viewBox="0 0 20 20" version="1.1" xmlns="http://www.w3.org/2000/svg" xmlns:xlink="http://www.w3.org/1999/xlink">
    <title>Icon / Catalogue Copy 5</title>
    <defs>
        <path d="M15,0.833333333 C15.4602373,0.833333333 15.8333333,1.20642938 15.8333333,1.66666667 L15.8333333,1.66666667 L15.8333333,6.66633333 L16.6666667,6.66666667 C17.9921501,6.66666667 19.0767053,7.6982026 19.161349,9.00229098 L19.1666667,9.16666667 L19.1666667,13.3333333 C19.1666667,14.7140452 18.0473785,15.8333333 16.6666667,15.8333333 L16.6666667,15.8333333 L15.8333333,15.8333333 L15.8333333,18.3333333 C15.8333333,18.7935706 15.4602373,19.1666667 15,19.1666667 L5,19.1666667 C4.53976271,19.1666667 4.16666667,18.7935706 4.16666667,18.3333333 L4.16633333,15.8333333 L3.33333333,15.8333333 C2.00784993,15.8333333 0.923294661,14.8017974 0.838651013,13.497709 L0.833333333,13.3333333 L0.833333333,9.16666667 C0.833333333,7.78595479 1.95262146,6.66666667 3.33333333,6.66666667 L3.33333333,6.66666667 L4.16633333,6.66633333 L4.16666667,1.66666667 C4.16666667,1.24183224 4.48457099,0.891248353 4.89546844,0.839826183 L5,0.833333333 Z M14.1666667,12.5 L5.83333333,12.5 L5.83333333,17.5 L14.1666667,17.5 L14.1666667,12.5 Z M16.6666667,8.33333333 L3.33333333,8.33333333 C2.87309604,8.33333333 2.5,8.70642938 2.5,9.16666667 L2.5,9.16666667 L2.5,13.3333333 C2.5,13.7935706 2.87309604,14.1666667 3.33333333,14.1666667 L3.33333333,14.1666667 L4.16633333,14.1663333 L4.16666667,11.6666667 C4.16666667,11.2064294 4.53976271,10.8333333 5,10.8333333 L15,10.8333333 C15.4602373,10.8333333 15.8333333,11.2064294 15.8333333,11.6666667 L15.8333333,14.1663333 L16.6666667,14.1666667 C17.0915011,14.1666667 17.442085,13.8487623 17.4935072,13.4378649 L17.5,13.3333333 L17.5,9.16666667 C17.5,8.70642938 17.126904,8.33333333 16.6666667,8.33333333 L16.6666667,8.33333333 Z M14.1666667,2.5 L5.83333333,2.5 L5.83333333,6.66633333 L14.1663333,6.66633333 L14.1666667,2.5 Z" id="path-1"></path>
    </defs>
    <g id="Maquette" stroke="none" stroke-width="1" fill="none" fill-rule="evenodd">
        <g id="Messagerie-action" transform="translate(-1214.000000, -364.000000)">
            <g id="Group-2" transform="translate(1197.000000, 278.000000)">
                <g id="Group" transform="translate(15.000000, 84.000000)">
                    <g id="printer" transform="translate(2.000000, 2.000000)">
                        <mask id="mask-2" fill="white">
                            <use xlink:href="#path-1"></use>
                        </mask>
                        <use id="Combined-Shape" fill="#C45A20" fill-rule="nonzero" xlink:href="#path-1"></use>
                    </g>
                </g>
            </g>
        </g>
    </g>
</svg>