<?xml version="1.0" encoding="UTF-8"?>
<svg width="25px" height="25px" viewBox="0 0 25 25" version="1.1" xmlns="http://www.w3.org/2000/svg" xmlns:xlink="http://www.w3.org/1999/xlink">
    <title>↳ 📍icon / Add</title>
    <g id="Maquette" stroke="none" stroke-width="1" fill="none" fill-rule="evenodd">
        <g id="Tableau-de-bord---eForm" transform="translate(-1115.000000, -33.000000)" fill-rule="nonzero">
            <g id="↳-📍icon-/-Add" transform="translate(1115.000000, 33.000000)">
                <g id="↳-📍icon-/-Search" transform="translate(0.500000, 0.378812)">
                    <rect id="Rectangle" opacity="0" x="0" y="0" width="24" height="24"></rect>
                    <path d="M16.9900466,15.3855141 L20.6584156,19.0538831 L19.1301558,20.5821429 L15.4617869,16.9137739 L16.9900466,15.3855141 Z M9.82672725,3.41785714 C13.4039766,3.4284481 16.3012791,6.3257506 16.3118701,9.903 C16.3118701,13.4846455 13.4083728,16.3881429 9.82672725,16.3881429 C6.24508175,16.3881429 3.34158439,13.4846455 3.34158439,9.903 C3.34158439,6.3213545 6.24508175,3.41785714 9.82672725,3.41785714 Z M9.82672725,5.57785714 C7.43872689,5.57785714 5.50287011,7.51371393 5.50287011,9.90171429 C5.50287011,12.2897146 7.43872689,14.2255714 9.82672725,14.2255714 C12.212089,14.2192133 14.1442262,12.287076 14.1505844,9.90171429 C14.1505844,7.51371393 12.2147276,5.57785714 9.82672725,5.57785714 Z" id="Combined-Shape" fill-opacity="0.87" fill="#262626"></path>
                </g>
            </g>
        </g>
    </g>
</svg>